<?xml version="1.0" encoding="utf-8"?>
<!-- Generator: Adobe Illustrator 18.1.1, SVG Export Plug-In . SVG Version: 6.00 Build 0)  -->
<svg version="1.1" id="레이어_1" xmlns="http://www.w3.org/2000/svg" xmlns:xlink="http://www.w3.org/1999/xlink" x="0px"
	 y="0px" width="136px" height="23.4px" viewBox="-3.45 139.6 136 23.4" enable-background="new -3.45 139.6 136 23.4"
	 xml:space="preserve">
<g>
	<path fill="#FFFFFF" d="M116.962,157.74c0,0-2.745-0.192-2.745-1.724c0-1.724,0-1.022,0-2.937v-0.255h1.149
		c0.575,0.064,0.958,0.192,0.958,0.192c0.766,0.255,1.149,1.468,1.213,1.596c0,0,0,0.064,0,0.128v0.064h0.064h0.255v-0.064v-4.533
		l0,0v-0.064l0,0h-0.319v0.319c-0.128,0.383-0.447,1.277-1.149,1.468c0,0-0.447,0.128-1.022,0.192h-1.149v-4.214
		c0-0.638,1.213-0.638,1.532-0.638c0.766-0.064,1.852,0,2.554,0.064c0.638,0.064,1.213,0.319,1.532,0.83
		c0.192,0.255,0.383,0.511,0.511,0.83c0,0,0.128,0.192,0.192,0.383c0,0.064,0,0.064,0.064,0.064l0.383-0.064
		c0-0.064-0.319-2.235-0.447-2.745l-5.171,0.064l-4.852-0.064v0.702c0,0,0.702-0.064,1.022,0.192
		c0.255,0.192,0.447,0.638,0.511,1.022c0,0.064,0.064,0.638,0.064,1.405c0,0,0,5.235,0,5.555c0,1.213-0.702,2.426-1.66,2.426h-0.511
		v0.766h10.981l0.575-2.49c0.064-0.128,0.064-0.255,0.064-0.383l-0.255-0.064C121.24,155.697,119.707,157.74,116.962,157.74z"/>
	<path fill="#FFFFFF" d="M30.835,146.503c-3.511,0-6.321,2.107-6.321,6.001c0,3.958,2.809,6.001,6.321,6.001
		s6.321-2.107,6.321-6.001C37.219,148.61,34.346,146.503,30.835,146.503z M30.835,158.059c-1.915,0-3.575-2.49-3.575-5.491
		c0-3.065,1.022-5.555,3.575-5.491c1.915,0.064,3.575,2.49,3.575,5.491S32.814,158.059,30.835,158.059z"/>
	<path fill="#FFFFFF" d="M58.416,146.567c-3.511,0-6.321,2.107-6.321,6.001c0,3.895,2.809,6.001,6.321,6.001
		c3.511,0,6.321-2.107,6.321-6.001C64.673,148.61,61.864,146.567,58.416,146.567z M58.416,158.059c-1.915,0-3.575-2.426-3.575-5.491
		s1.532-5.491,3.575-5.491c1.915,0,3.575,2.426,3.575,5.491C61.928,155.57,60.395,158.059,58.416,158.059z"/>
	<path fill="#FFFFFF" d="M19.854,157.421c-2.681,0.958-4.533-1.66-4.725-4.533c-0.192-2.809,0.511-5.171,3.384-5.618
		c1.532-0.192,2.49,0.638,3.448,1.852l0.255,0.447c0.064,0.128,0.064,0.192,0.128,0.319l0.702-0.128c0,0-0.383-3.384-0.447-3.384
		l-0.83,0.064l-0.128,1.149c-1.213-0.894-2.873-1.277-4.469-1.085c-3.192,0.447-5.427,3.065-4.98,6.768
		c0.447,4.15,3.448,5.491,6.704,5.108c1.979-0.192,3.256-1.022,4.341-2.937l-0.638-0.383
		C21.897,156.336,20.811,157.166,19.854,157.421z"/>
	<path fill="#FFFFFF" d="M52.223,146.567c-1.277,0-4.98,0-4.98,0v0.766c0.638,0.064,1.852-0.064,1.852,2.235v5.044
		c0,0,0-0.192-0.128-0.319c-1.277-1.341-7.598-7.981-7.661-7.981h-3.448v1.022c0,0,1.596,0.064,2.107,0.511v8.747
		c-0.447,1.341-2.107,1.277-2.107,1.277v0.766c0.638,0,4.98,0,4.98,0v-0.702c-0.511-0.064-1.724,0-2.235-1.022v-7.278
		c0.638,0.447,1.532,1.277,2.554,2.362l6.001,6.193h0.702v-2.937v-5.938c0.064-2.426,2.362-2.043,2.362-2.043V146.567z"/>
	<path fill="#FFFFFF" d="M73.356,143.822L73.356,143.822h-0.128h-0.064H73.1h-0.064h-0.064h-7.278l-0.958,3.958l1.022-0.064
		c0.638-3.511,5.81-3.192,5.81-3.192h-0.064v11.875c0,0.766-0.958,1.277-2.618,1.341l0.064,0.511h8.364v-0.511
		c-1.66-0.064-2.681-0.638-2.681-1.341v-11.875c0,0,5.171-0.319,5.81,3.128l1.085,0.128l-0.958-3.958H73.356L73.356,143.822z"/>
	<path fill="#FFFFFF" d="M104.002,147.397l-3.511,8.3l-4.788-9.385h-4.725v1.022c0,0,2.873-0.383,2.873,0.894v8.044
		c-0.383,1.532-2.235,1.596-2.235,1.596v0.319h4.98v-0.319c0-0.064-1.596-0.255-2.107-1.341v-7.151
		c0.894,1.66,4.725,8.811,4.725,8.811h1.149l4.278-10.151c0.064,0.192,0.128,0.575,0.128,0.83v7.47c0,1.724-2.49,1.596-2.49,1.596
		v0.319h6.895v-0.383c0,0-2.49,0.064-2.49-1.66v-7.342c0-1.724,2.49-1.532,2.49-1.532v-0.766c0,0-3.001,0-4.661,0L104.002,147.397z"
		/>
	<path fill="#FFFFFF" d="M131.838,152.824c-0.575-0.702-1.596-1.341-3.256-1.852c-1.085-0.383-1.724-0.702-2.043-1.085
		c-0.383-0.319-0.575-0.702-0.575-1.085c0.064-0.511,0.255-0.894,0.702-1.213c0.447-0.319,0.958-0.447,1.532-0.383
		c0.638,0.064,1.213,0.064,1.788,0.511c1.213,0.894,1.468,1.915,1.468,2.043h0.638l0.128-0.128l-0.255-3.32h-0.702l-0.319,0.894
		c-1.149-0.447-1.979-0.638-2.681-0.702c-1.341-0.064-2.362,0.192-3.128,0.83c-0.83,0.638-1.277,1.405-1.341,2.298
		c-0.064,0.511,0.064,1.085,0.383,1.596c0.255,0.575,0.638,0.958,1.149,1.341c0.511,0.319,1.277,0.702,2.235,1.085
		c1.085,0.383,1.724,0.83,2.171,1.213c0.383,0.383,0.575,0.83,0.511,1.405c-0.064,0.511-0.319,1.213-0.766,1.532
		c-0.511,0.383-1.085,0.447-1.788,0.383c-0.511-0.064-1.022-0.192-1.468-0.447c-1.532-0.83-2.235-2.745-2.235-2.745h-0.383
		l-0.192-0.064c0,0.064-0.128,3.384-0.128,3.384h0.702c0.064-0.638,0.447-0.638,0.575-0.702c0.575,0.319,1.149,0.638,1.66,0.83
		c0.575,0.192,1.149,0.319,1.596,0.319c0.958,0.064,1.66-0.064,2.298-0.319c0.638-0.319,1.213-0.702,1.596-1.213
		c0.447-0.511,0.766-1.213,0.83-1.979C132.604,154.293,132.349,153.526,131.838,152.824z"/>
	<path fill="#FFFFFF" d="M5.297,157.357c0,0-3.128-0.255-3.128-2.107c0-2.171,0-1.277,0-3.639v-0.128v-0.192v-0.128
		c0,0,1.532,0,2.043,0.128c0.575,0.192,1.532,1.022,1.596,2.362l-0.128,0.128h0.83c0,0,0-1.66,0-3.128s0-3.128,0-3.128H5.68v0.255
		c-0.128,1.405-1.022,2.171-1.532,2.362c-0.447,0.128-1.979,0.192-1.979,0.192c0-2.298,0-4.533,0-5.108
		c0-0.766,1.213-0.766,1.66-0.83c0.958-0.064,2.107-0.064,3.065,0.064c0.83,0.064,1.405,0.447,1.852,1.022
		c0.255,0.319,0.447,0.638,0.638,1.022c0,0,0.128,0.255,0.255,0.447c0,0.064,0,0,0,0.064h0.638c0-0.064-0.575-2.554-0.638-3.192
		H-3.45v0.83c0,0,1.405-0.064,1.788,0.255c0.064,0.064,0.255,0.128,0.319,0.192l0.128,0.064c0.128,0.255,0.319,0.575,0.383,0.958
		c0,0.128,0.064,0.702,0.064,1.532c0,0,0.064,6.193,0,6.576c0.064,1.979-0.83,3.448-2.043,3.511H-3.45v0.894h13.599l0.702-3.192
		c0.064-0.192,0.064-0.319,0.064-0.447l-0.766-0.255C10.085,154.74,8.681,157.421,5.297,157.357z"/>
	<path fill="#FFFFFF" d="M82.805,146.567v0.447v0.255c0,0,2.49-0.192,2.49,1.724v2.682v0.894v0.958v2.682
		c0,1.915-2.49,1.724-2.49,1.724v0.766c0,0,1.724,0,3.384,0c0,0,0.064,0,0.128,0h0.128c1.596,0,3.32,0,3.32,0v-0.766
		c0,0-1.852,0.192-1.852-1.724v-2.682v-0.958v-0.958v-2.618c0-1.915,1.852-1.724,1.852-1.724v-0.255v-0.447v-0.255h-6.959V146.567z"
		/>
</g>
</svg>
